<?xml version="1.0" standalone="no"?>
<!DOCTYPE svg PUBLIC "-//W3C//DTD SVG 1.1//EN" "http://www.w3.org/Graphics/SVG/1.1/DTD/svg11.dtd">
<svg xmlns="http://www.w3.org/2000/svg" xmlns:xlink="http://www.w3.org/1999/xlink" version="1.1" x="0px" y="0px" viewBox="0 0 500 500" style="enable-background:new 0 0 500 500;" xml:space="preserve" width="500" height="500">
<style type="text/css">
	.st0{fill:#E8E8E8;}
	.st1{fill:#BE231C;}
	.st2{fill:#FFFFFF;stroke:#001642;stroke-miterlimit:10;}
	.st3{fill:#48B4E0;}
	.st4{fill:url(#SVGID_1_);}
	.st5{fill:url(#SVGID_2_);}
	.st6{fill:url(#SVGID_3_);}
	.st7{fill:url(#SVGID_4_);}
	.st8{fill:url(#SVGID_5_);}
	.st9{fill:#EAEAEA;}
	.st10{fill:url(#SVGID_6_);}
	.st11{fill:#001642;}
	.st12{fill:#E0E0E0;}
	.st13{fill:url(#SVGID_7_);}
	.st14{opacity:0.04;fill:url(#SVGID_8_);}
	.st15{opacity:0.04;fill:url(#SVGID_9_);}
	.st16{opacity:0.04;fill:url(#SVGID_10_);}
	.st17{opacity:0.04;fill:url(#SVGID_11_);}
	.st18{fill:#D21D0B;}
</style>
<g id="Layer_1">
</g>
<g id="Layer_2">
	<path class="st0" d="M126.32,321.89"/>
	<path class="st1" d="M99.51,294.06"/>
	<path class="st0" d="M205.09,327.38"/>
	<g>
		<path class="st1" d="M250,330.73"/>
		<g>
			<g>
				<circle class="st2" cx="250" cy="235.52" r="83.33"/>
				<circle class="st3" cx="250" cy="235.52" r="76.7"/>
			</g>
			<path class="st1" d="M268.6,275.79"/>
			<linearGradient id="SVGID_1_" gradientUnits="userSpaceOnUse" x1="170.002" y1="170.731" x2="170.002" y2="170.731">
				<stop offset="8.039834e-03" style="stop-color:#001642"/>
				<stop offset="0.5111" style="stop-color:#415376"/>
				<stop offset="0.9774" style="stop-color:#001642"/>
			</linearGradient>
			<path class="st4" d="M170,170.73"/>
			<linearGradient id="SVGID_2_" gradientUnits="userSpaceOnUse" x1="242.5126" y1="263.1126" x2="242.5126" y2="263.1126">
				<stop offset="8.039834e-03" style="stop-color:#001642"/>
				<stop offset="0.1693" style="stop-color:#415376"/>
				<stop offset="0.9774" style="stop-color:#001642"/>
			</linearGradient>
			<path class="st5" d="M242.51,263.11"/>
			<linearGradient id="SVGID_3_" gradientUnits="userSpaceOnUse" x1="242.5126" y1="128.0757" x2="242.5126" y2="128.0757">
				<stop offset="8.039834e-03" style="stop-color:#001642"/>
				<stop offset="0.1693" style="stop-color:#415376"/>
				<stop offset="0.9774" style="stop-color:#001642"/>
			</linearGradient>
			<path class="st6" d="M242.51,128.08"/>
			<g id="pencil">
				<linearGradient id="SVGID_4_" gradientUnits="userSpaceOnUse" x1="248.6762" y1="86.6392" x2="262.5315" y2="86.6392">
					<stop offset="0.0121" style="stop-color:#445774"/>
					<stop offset="0.5111" style="stop-color:#1A2335"/>
					<stop offset="0.9774" style="stop-color:#4B5F7D"/>
				</linearGradient>
				<path class="st7" d="M248.68,93.27c-0.07-0.14,0.32-0.89,0.38-1.03l6.06-13.93c0,0,2.49-5.55,4.15,0      c1.54,5.15,3.02,13.41,3.22,14.58c0.02,0.09,0.04,0.6,0.01,0.69l-1.55,3.54c-0.08,0.2-0.27,0.33-0.49,0.33l-8.72-0.16      c-0.19,0-0.36-0.11-0.45-0.28L248.68,93.27z"/>
				<linearGradient id="SVGID_5_" gradientUnits="userSpaceOnUse" x1="232.5244" y1="117.1223" x2="273.4847" y2="117.1223">
					<stop offset="8.039834e-03" style="stop-color:#F5DAA4"/>
					<stop offset="0.5111" style="stop-color:#CD8842"/>
					<stop offset="0.9774" style="stop-color:#F6DCA8"/>
				</linearGradient>
				<path class="st8" d="M248.69,93.08c0,0-13.36,29.46-14.77,35.95s-1.4,9.96-1.4,9.96l40.96,2.36c0,0-5.07-30.85-10.88-48.23      C262,91.28,257.78,102.27,248.69,93.08z"/>
				<path class="st9" d="M204,304.5c0.22-0.9,0.77-2.52,2.17-4c2.59-2.74,6.06-2.84,6.78-2.84c0,0,2.4-8.15,10.4-3.57      c0.45,0.26-7.09-15.51,10.4-12.32c0.37-1.52,0.79-4.08,0.28-7.17c-0.4-2.35-1.2-4.19-1.85-5.41c5.2,0.37,10.68,0.61,16.42,0.69      c6.6,0.09,12.87-0.05,18.79-0.35c-0.54,1.3-1.16,3.21-1.37,5.58c-0.23,2.55,0.09,4.67,0.42,6.09c0,0,17.49-2.55,11.75,12.51      c0,0,7.91-3.96,12.51,3.57c0.41-0.08,1.6-0.25,2.77,0.42c1.37,0.77,2.16,2.38,2.06,4.11c-5.1,2.57-29.08,14.25-53.91,13.4      c-5.75-0.2-16.77-0.57-29.35-6.26C208.7,307.33,205.89,305.69,204,304.5z"/>
				<linearGradient id="SVGID_6_" gradientUnits="userSpaceOnUse" x1="227.0571" y1="200.8796" x2="275.641" y2="200.8796">
					<stop offset="8.039834e-03" style="stop-color:#FF4516"/>
					<stop offset="0.5111" style="stop-color:#D21D0B"/>
					<stop offset="0.9774" style="stop-color:#FF4B1C"/>
				</linearGradient>
				<path class="st10" d="M233.79,130.41c-1.14,4.75-2.63,11.56-3.92,19.81c-1.32,8.42-3.32,24.04-2.7,53.23      c0.34,16.08,1.49,37.1,4.75,61.85c0.11,1.3,0.22,2.6,0.33,3.89c1.52,0.92,2.83,1.54,3.76,1.93c0,0,5.8,2.44,13.57,2.45      c0.01,0,0.16,0,0.36,0c0.65,0,1.13,0.01,1.19,0.01c0.54,0,1.78-0.03,2.9-0.1c2.19-0.13,4.16-0.42,5.13-0.57      c5.32-0.9,7.58-1.32,7.75-1.41c0,0,0,0,0.01,0c0.11-0.06,0.2-0.09,0.26-0.12c0.05-0.02,0.04-0.01,0.05-0.02      c0.1-0.05,0.15-0.14,0.18-0.23c0.21-1.4,0.52-3.49,0.92-6.03c0.45-2.82,0.79-4.88,0.88-5.42c5.78-34.62,5.78-53.97,5.78-53.97      c0,0,0,0,0,0c0.01-0.13,1.75-29.86-0.51-56.7c-0.28-3.32-0.66-6-0.96-7.86c-0.68-4.23-1.11-5.17-1.54-9.09      c0,0-0.49-2.73-0.6-2.72c-0.08,0.01,0.62,5.12-0.91,9.02c-0.22,0.56-0.59,1.34-1.14,1.41c-0.39,0.05-0.92-0.4-1.77-1.84      c-1.51-2.55-0.95-4.32-2.55-7.13c-0.15-0.27-0.29-0.48-0.38-0.62c-0.42-0.58-1.21-1.48-2.23-1.49      c-1.15-0.02-2.15,0.98-3.06,2.52c-0.42,0.71-4.54,5.59-4.54,5.59s-2.14,3.04-4.72,0.03s-5.13-7.11-5.13-7.11s-2.54-3.89-4.9,0.6      c-0.26,0.48-3.24,6.71-3.24,6.71s-1.01,1.97-1.81,1.79c-0.38-0.09-0.57-0.64-0.69-1.07      C233.7,135.56,233.72,132.34,233.79,130.41z"/>
				<path class="st11" d="M226.74,216.62c-8.72,13.63-15.06,23.68-15.66,24.85c-0.33,0.63-0.56,1.28-0.56,1.28s-0.35,0.96-0.52,2.02      c-0.21,1.31,2.43,17.33,6.61,39.17c0,0,2.57,3.03,3.96,0c0.23-0.51-2.68-26.51,10.21-37.79c0.51-0.45-2.04-32.04-2.04-32.04      L226.74,216.62z"/>
				<path class="st11" d="M274.07,216.62c8.72,13.63,15.06,23.68,15.66,24.85c0.35,0.68,0.59,1.36,0.59,1.36s0.32,0.92,0.48,1.93      c0.2,1.3-2.44,17.33-6.61,39.17c0,0-2.57,3.03-3.96,0c-0.23-0.51,2.68-26.51-10.21-37.79c-0.51-0.45,2.04-32.04,2.04-32.04      L274.07,216.62z"/>
				<path class="st12" d="M207.73,306.77c0.36-1.14,1.41-3.94,4.2-6.23c2.45-2.01,4.98-2.6,6.17-2.8c0,0,2.18-8.02,9.47-3.52      c0,0,0.01,0,0.01,0c0.25-0.12-2.08-7.63,0.24-10.6c0.95-1.22,3.2-2.32,9.24-0.9c0.59-1.15,1.7-3.66,1.64-7.02      c-0.07-3.83-1.61-6.56-2.3-7.64c4,1,8.76,1.88,14.14,2.32c6.55,0.53,12.33,0.26,17.06-0.27c-0.03,0.21-0.07,0.52-0.13,0.9      c-0.36,2.31-0.84,3.91-0.88,4.41c-0.17,2.28-0.04,4.37,0.17,6.04c4.89-1.86,10.07-0.02,12.11,3.76      c2.18,4.02-0.18,8.43-0.36,8.75c0.53-0.28,3.91-2,7.76-0.53c2.92,1.12,4.34,3.39,4.75,4.1c0.38-0.09,0.74-0.13,1.09-0.14      c3.79-0.13,6.62,3.51,7.37,4.55c-3.78,2.82-8.36,5.74-13.77,8.32c-1.91,0.91-3.77,1.71-5.57,2.41      c-0.03,0.01-0.06,0.03-0.11,0.05c-1.04,0.48-1.89,0.77-2.99,1.13c-0.62,0.2-1.32,0.43-2.35,0.74c-0.54,0.17-1.42,0.43-2.56,0.74      c-0.59,0.16-1.6,0.44-2.94,0.76c-0.18,0.04-2.23,0.53-4.59,0.95c-0.36,0.06-0.71,0.12-1.42,0.24c-0.6,0.1-0.75,0.1-1.87,0.26      c-0.13,0.02-0.38,0.06-0.73,0.1c0,0-0.39,0.05-0.75,0.1c-0.88,0.11-1.96,0.15-1.96,0.15c-1.48,0.06-3.15,0.3-5.16,0.41      c-2.48,0.14-4.38,0.04-7.48-0.13c-1.02-0.06-2.1-0.11-3.54-0.25c-0.85-0.08-4.14-0.41-8.55-1.32c-2.91-0.6-5.09-1.2-5.66-1.36      c-2.54-0.71-6.14-1.85-10.3-3.66C213.64,310.1,210.5,308.44,207.73,306.77z"/>
				<linearGradient id="SVGID_7_" gradientUnits="userSpaceOnUse" x1="231.2053" y1="267.0522" x2="269.2327" y2="267.0522">
					<stop offset="8.039834e-03" style="stop-color:#001642"/>
					<stop offset="0.1693" style="stop-color:#415376"/>
					<stop offset="0.9774" style="stop-color:#001642"/>
				</linearGradient>
				<path class="st13" d="M231.21,259.58c3.48,1.67,10.24,4.34,19.13,4.32c8.77-0.03,15.43-2.67,18.9-4.33      c-0.6,3.86-1.2,7.72-1.8,11.58c-2.89,1.31-6.87,2.69-11.73,3.19c-11.19,1.16-19.88-3.08-23.52-5.14L231.21,259.58z"/>
				<linearGradient id="SVGID_8_" gradientUnits="userSpaceOnUse" x1="262.7439" y1="196.924" x2="266.4268" y2="196.924">
					<stop offset="8.039834e-03" style="stop-color:#001642"/>
					<stop offset="0.1693" style="stop-color:#415376"/>
					<stop offset="0.9774" style="stop-color:#001642"/>
				</linearGradient>
				<path class="st14" d="M262.74,129.41c2.05,18.7,3.43,39.26,3.65,61.41c0.26,26.93-1.25,51.62-3.65,73.63"/>
				
					<linearGradient id="SVGID_9_" gradientUnits="userSpaceOnUse" x1="239.9757" y1="196.924" x2="243.6586" y2="196.924" gradientTransform="matrix(-1 0 0 1 481.0417 0)">
					<stop offset="8.039834e-03" style="stop-color:#001642"/>
					<stop offset="0.1693" style="stop-color:#2A0200"/>
					<stop offset="0.9774" style="stop-color:#001642"/>
				</linearGradient>
				<path class="st15" d="M241.07,129.41c-2.05,18.7-3.43,39.26-3.65,61.41c-0.26,26.93,1.25,51.62,3.65,73.63"/>
				<g>
					
						<linearGradient id="SVGID_10_" gradientUnits="userSpaceOnUse" x1="228.216" y1="206.3797" x2="231.8989" y2="206.3797" gradientTransform="matrix(-1 0 0 1 481.0417 0)">
						<stop offset="8.039834e-03" style="stop-color:#001642"/>
						<stop offset="0.1693" style="stop-color:#2A0200"/>
						<stop offset="0.9774" style="stop-color:#001642"/>
					</linearGradient>
					<path class="st16" d="M252.83,142.79c-2.05,17.62-3.43,36.97-3.65,57.84c-0.26,25.37,1.25,48.62,3.65,69.35"/>
					
						<linearGradient id="SVGID_11_" gradientUnits="userSpaceOnUse" x1="259.0367" y1="199.7522" x2="262.7196" y2="199.7522" gradientTransform="matrix(1 0 0 1 -6.211 0)">
						<stop offset="8.039834e-03" style="stop-color:#001642"/>
						<stop offset="0.1693" style="stop-color:#2A0200"/>
						<stop offset="0.9774" style="stop-color:#001642"/>
					</linearGradient>
					<path class="st17" d="M252.83,136.16c2.05,17.62,3.43,36.97,3.65,57.84c0.26,25.37-1.25,48.62-3.65,69.35"/>
				</g>
			</g>
		</g>
		<g>
			<g>
				<path class="st11" d="M182.22,351.08v-18.83h3.88h2.3v33.48h-6.18V351.08z"/>
				<path class="st11" d="M197.42,332.25h6.18h21.07v4.96h-21.07v8.96h18.89v4.96h-18.89v9.63h21.07v4.96h-21.07h-6.18V332.25z"/>
				<path class="st11" d="M257.3,360.77v4.96h-19.25h-6.18v-4.96v-28.52h6.18v28.52H257.3z"/>
				<path class="st11" d="M267.71,353.92v-16.71h-13.32v-4.96h27.67h5.21v2.97v2h-13.32v28.52h-6.24V353.92z"/>
				<path class="st11" d="M299.74,337.88c-1.37,0.97-2.06,2.2-2.06,3.69c0,0.89,0.3,1.61,0.91,2.18s1.41,1.01,2.42,1.33      c1.9,0.65,4.2,1.15,6.9,1.51c2.7,0.32,5.13,1.01,7.27,2.06c1.41,0.69,2.56,1.61,3.45,2.79s1.33,2.72,1.33,4.66      c0,1.37-0.22,2.58-0.67,3.63s-1.07,1.96-1.88,2.72c-1.45,1.45-3.31,2.5-5.57,3.15c-2.26,0.61-4.5,0.91-6.72,0.91      s-4.46-0.34-6.72-1.03c-2.3-0.69-4.18-1.8-5.63-3.33c-0.77-0.81-1.39-1.78-1.88-2.91c-0.44-1.09-0.67-2.34-0.67-3.75h6.48      c0,1.94,0.83,3.43,2.48,4.48c1.61,1.05,3.59,1.57,5.93,1.57c2.3,0,4.28-0.4,5.93-1.21c1.61-0.81,2.42-2.12,2.42-3.94      c0-0.93-0.3-1.67-0.91-2.24s-1.43-1.03-2.48-1.39c-1.86-0.69-4.14-1.21-6.84-1.57s-5.13-1.07-7.27-2.12      c-1.41-0.69-2.56-1.63-3.45-2.85c-0.93-1.17-1.39-2.72-1.39-4.66c0-1.25,0.24-2.38,0.73-3.39c0.44-1.01,1.05-1.88,1.82-2.6      c1.41-1.45,3.19-2.5,5.33-3.15s4.18-0.97,6.12-0.97c1.05,0,2.14,0.1,3.27,0.3s2.24,0.48,3.33,0.85      c1.98,0.77,3.69,1.92,5.15,3.45s2.18,3.57,2.18,6.12h-6.48c0-1.61-0.71-2.99-2.12-4.12c-1.41-1.09-3.19-1.63-5.33-1.63      C302.95,336.43,301.15,336.91,299.74,337.88z"/>
			</g>
			<g>
				<path class="st18" d="M204.31,393.71h-0.39h-1.51h-1.34h-0.56c-1.09-3.46-2.62-8.32-4.58-14.57c-1.12,3.56-2.65,8.41-4.59,14.57      h-0.18h-1.55h-0.18h-1.37h-0.32c-1.29-4.31-3.21-10.79-5.77-19.44h3.97c0.7,2.62,1.97,7.36,3.81,14.23      c1.24-3.81,2.78-8.55,4.63-14.23h3.06h0.18c0.87,2.66,2.43,7.5,4.71,14.53c0.99-3.86,2.25-8.7,3.77-14.53h3.76      C208.96,377.5,207.1,383.99,204.31,393.71z"/>
				<path class="st18" d="M231.07,393.71h-4.32c-0.97-1.33-2.82-3.85-5.54-7.56h-1.95h-2.78v3.52v4.04h-2.29h-1.3v-3.97v-3.23v-6.61      v-5.63h3.06h6.29c2.58,0,4.55,0.54,5.91,1.62c1.34,1.08,2,2.52,2,4.32s-0.67,3.25-2,4.32c-0.78,0.62-1.79,1.06-3.02,1.33      C226.38,387.51,228.36,390.13,231.07,393.71z M225.3,377.86c-0.73-0.47-1.75-0.7-3.06-0.7h-2.78h-2.99v2.99v0.7v2.43h2.92h2.85      c1.31,0,2.33-0.23,3.06-0.7c0.73-0.49,1.09-1.28,1.09-2.36S226.03,378.35,225.3,377.86z"/>
				<path class="st18" d="M234.76,385.2v-10.93h2.25h1.34v19.44h-3.59V385.2z"/>
				<path class="st18" d="M249.6,386.86v-9.7h-7.73v-2.88h16.07h3.02v1.72v1.16h-7.73v16.56h-3.62V386.86z"/>
				<path class="st18" d="M264.47,385.2v-10.93h2.25h1.34v19.44h-3.59V385.2z"/>
				<path class="st18" d="M273.29,385.2v-10.93h0.25h1.55h0.04h1.76h0.53c2.77,3.56,6.67,8.6,11.71,15.12v-4.18v-10.93h2.25h1.37      v19.44h-0.28h-3.34h-0.53c-2.12-2.73-6.02-7.77-11.71-15.12v15.12h-3.59V385.2z"/>
				<path class="st18" d="M310.94,377.82c-0.94-0.73-2.24-1.1-3.9-1.13c-1.97,0-3.56,0.68-4.78,2.04c-1.22,1.34-1.83,3.09-1.83,5.27      c0,2.16,0.64,3.9,1.93,5.24c1.27,1.36,2.86,2.04,4.78,2.04c1.85,0,3.32-0.52,4.39-1.55c1.07-1.05,1.73-2.24,2-3.59h-6.92v-0.88      v-1.83h6.36h3.52v4.36v5.91h-2.67c-0.05-0.47-0.13-1.29-0.23-2.46c-0.05,0.07-0.11,0.14-0.16,0.21      c-1.45,1.85-3.59,2.78-6.4,2.78c-3.07,0-5.57-0.98-7.49-2.95c-1.92-1.99-2.88-4.42-2.88-7.28c0-2.88,0.95-5.32,2.85-7.31      c1.88-1.97,4.36-2.95,7.45-2.95c2.55,0,4.66,0.67,6.33,2s2.65,2.88,2.95,4.64h-3.52C312.48,379.43,311.88,378.57,310.94,377.82z      "/>
			</g>
			<g>
				<path class="st11" d="M197.55,415.27c-1.25,0.88-3.05,1.32-5.41,1.32h-5.87h-2.87v-9.25v-8.57h3.06h5.35      c2.19,0,3.87,0.47,5.03,1.42c1.16,0.92,1.74,2.16,1.74,3.71c0,0.58-0.16,1.19-0.48,1.84s-0.92,1.21-1.8,1.71      c1.03,0.43,1.8,0.98,2.32,1.64c0.52,0.69,0.77,1.48,0.77,2.38C199.39,413.12,198.78,414.39,197.55,415.27z M189.3,401.42h-2.61      v2.06v0.45v2.35h2.67h2.45c1.2,0,2.05-0.24,2.55-0.71c0.49-0.49,0.74-1.06,0.74-1.71c0-0.67-0.25-1.25-0.74-1.74      c-0.49-0.47-1.34-0.71-2.55-0.71H189.3z M189.53,408.76h-2.84v2.13v0.55v2.51h2.9h2.71c1.2,0,2.12-0.19,2.74-0.58      c0.6-0.41,0.9-1.05,0.9-1.93s-0.3-1.55-0.9-2c-0.62-0.45-1.54-0.68-2.74-0.68H189.53z"/>
				<path class="st11" d="M204.58,414.37c-1.74-1.83-2.61-4.05-2.61-6.67c0-2.64,0.87-4.88,2.61-6.7c1.72-1.8,4.01-2.71,6.86-2.71      s5.16,0.9,6.9,2.71c1.74,1.83,2.61,4.06,2.61,6.7c0,2.62-0.87,4.84-2.61,6.67c-1.74,1.8-4.04,2.71-6.9,2.71      S206.3,416.17,204.58,414.37z M215.79,402.87c-1.14-1.25-2.59-1.87-4.35-1.87s-3.2,0.62-4.32,1.87      c-1.14,1.22-1.71,2.84-1.71,4.83c0,1.98,0.57,3.58,1.71,4.8c1.12,1.25,2.56,1.87,4.32,1.87s3.21-0.62,4.35-1.87      c1.12-1.22,1.68-2.83,1.68-4.8C217.47,405.7,216.91,404.09,215.79,402.87z"/>
				<path class="st11" d="M226.2,414.37c-1.74-1.83-2.61-4.05-2.61-6.67c0-2.64,0.87-4.88,2.61-6.7c1.72-1.8,4.01-2.71,6.86-2.71      s5.16,0.9,6.9,2.71c1.74,1.83,2.61,4.06,2.61,6.7c0,2.62-0.87,4.84-2.61,6.67c-1.74,1.8-4.04,2.71-6.9,2.71      S227.92,416.17,226.2,414.37z M237.42,402.87c-1.14-1.25-2.59-1.87-4.35-1.87s-3.2,0.62-4.32,1.87      c-1.14,1.22-1.71,2.84-1.71,4.83c0,1.98,0.57,3.58,1.71,4.8c1.12,1.25,2.56,1.87,4.32,1.87s3.21-0.62,4.35-1.87      c1.12-1.22,1.68-2.83,1.68-4.8C239.09,405.7,238.53,404.09,237.42,402.87z"/>
				<path class="st11" d="M250.27,401.77c-0.73,0.52-1.1,1.17-1.1,1.97c0,0.47,0.16,0.86,0.48,1.16s0.75,0.54,1.29,0.71      c1.01,0.34,2.23,0.61,3.67,0.81c1.44,0.17,2.73,0.54,3.87,1.1c0.75,0.37,1.36,0.86,1.84,1.48s0.71,1.45,0.71,2.48      c0,0.73-0.12,1.38-0.35,1.93s-0.57,1.04-1,1.45c-0.77,0.77-1.76,1.33-2.96,1.68c-1.2,0.32-2.4,0.48-3.58,0.48      s-2.37-0.18-3.58-0.55c-1.22-0.37-2.22-0.96-3-1.77c-0.41-0.43-0.74-0.95-1-1.55c-0.24-0.58-0.35-1.25-0.35-2h3.45      c0,1.03,0.44,1.83,1.32,2.38c0.86,0.56,1.91,0.84,3.16,0.84c1.22,0,2.28-0.21,3.16-0.64c0.86-0.43,1.29-1.13,1.29-2.09      c0-0.49-0.16-0.89-0.48-1.19s-0.76-0.55-1.32-0.74c-0.99-0.37-2.2-0.64-3.64-0.84c-1.44-0.19-2.73-0.57-3.87-1.13      c-0.75-0.37-1.36-0.87-1.84-1.51c-0.49-0.62-0.74-1.45-0.74-2.48c0-0.67,0.13-1.27,0.39-1.8c0.24-0.54,0.56-1,0.97-1.39      c0.75-0.77,1.7-1.33,2.84-1.68c1.14-0.34,2.22-0.52,3.25-0.52c0.56,0,1.14,0.05,1.74,0.16s1.19,0.26,1.77,0.45      c1.05,0.41,1.97,1.02,2.74,1.84s1.16,1.9,1.16,3.25h-3.45c0-0.86-0.38-1.59-1.13-2.19c-0.75-0.58-1.7-0.87-2.84-0.87      C251.98,401,251.03,401.25,250.27,401.77z"/>
				<path class="st11" d="M269.54,410.31v-8.89h-7.09v-2.64h14.73h2.77v1.58v1.06h-7.09v15.18h-3.32V410.31z"/>
				<path class="st11" d="M283.02,398.77h3.29h11.21v2.64H286.3v4.77h10.05v2.64H286.3v5.12h11.21v2.64H286.3h-3.29V398.77z"/>
				<path class="st11" d="M318.01,416.59h-3.96c-0.89-1.22-2.58-3.53-5.08-6.93h-1.79h-2.55v3.22v3.71h-2.09h-1.19v-3.64v-2.96      v-6.06v-5.16h2.8h5.77c2.36,0,4.17,0.49,5.41,1.48c1.22,0.99,1.84,2.31,1.84,3.96s-0.61,2.98-1.84,3.96      c-0.72,0.57-1.64,0.98-2.77,1.22C313.72,410.91,315.53,413.31,318.01,416.59z M312.73,402.06c-0.67-0.43-1.6-0.64-2.8-0.64      h-2.55h-2.74v2.74v0.64v2.22h2.67h2.61c1.2,0,2.14-0.21,2.8-0.64c0.67-0.45,1-1.17,1-2.16S313.39,402.51,312.73,402.06z"/>
			</g>
		</g>
	</g>
</g>
</svg>